HIERARCHY
ROOT hip
{
	OFFSET 0.00000 0.00000 0.00000
	CHANNELS 6 Xposition Yposition Zposition Zrotation Yrotation Xrotation 
	JOINT rightuplegdummy
	{
		OFFSET 0 0 0
		CHANNELS 3 Zrotation Yrotation Xrotation
		JOINT rightupleg
		{
			OFFSET -3.52197 -3.41223 0.04002
			CHANNELS 3 Zrotation Yrotation Xrotation
			JOINT rightleg
			{
				OFFSET 0.00006 -17.42390 1.60435
				CHANNELS 3 Zrotation Yrotation Xrotation
				JOINT rightfoot
				{
					OFFSET 0.06153 -16.50078 -1.63901
					CHANNELS 3 Zrotation Yrotation Xrotation
					JOINT righttoes
					{
						OFFSET 0.00298 -1.73825 3.34613
						CHANNELS 3 Zrotation Yrotation Xrotation
						End Site
						{
							OFFSET 0.00480 -0.05416 3.85043
						}
					}
				}
			}
		}
	}
	JOINT spinedummy
	{
		OFFSET 0 0 0
		CHANNELS 3 Zrotation Yrotation Xrotation
		JOINT spine
		{
			OFFSET 0.00000 4.68130 0.00000
			CHANNELS 3 Zrotation Yrotation Xrotation
			JOINT spine1
			{
				OFFSET -0.00000 10.10138 0.05002
				CHANNELS 3 Zrotation Yrotation Xrotation
				JOINT headdummy
				{
					OFFSET 0 0 0
					CHANNELS 3 Zrotation Yrotation Xrotation
					JOINT head
					{
						OFFSET -0.00000 3.43865 0.00438
						CHANNELS 3 Zrotation Yrotation Xrotation
						End Site
						{
							OFFSET -0.11417 5.02924 0.98962
						}
					}
				}
				JOINT leftshoulder1dummy
				{
					OFFSET 0 0 0
					CHANNELS 3 Zrotation Yrotation Xrotation
					JOINT leftshoulder1
					{
						OFFSET 3.53937 -0.14262 -0.08662
						CHANNELS 3 Zrotation Yrotation Xrotation
						JOINT leftarm
						{
							OFFSET 4.04833 -0.00133 0.12681
							CHANNELS 3 Zrotation Yrotation Xrotation
							JOINT leftforearm
							{
								OFFSET 10.33880 -0.01036 -0.55515
								CHANNELS 3 Zrotation Yrotation Xrotation
								JOINT lefthand
								{
									OFFSET 8.69677 0.07543 0.40060
									CHANNELS 3 Zrotation Yrotation Xrotation
									End Site
									{
										OFFSET 5.28377 -0.21905 0.59205
									}
								}
							}
						}
					}
				}
				JOINT rightshoulderdummy
				{
					OFFSET 0 0 0
					CHANNELS 3 Zrotation Yrotation Xrotation
					JOINT rightshoulder
					{
						OFFSET -3.53937 -0.14262 -0.08660
						CHANNELS 3 Zrotation Yrotation Xrotation
						JOINT rightarm
						{
							OFFSET -4.04833 -0.00133 0.12683
							CHANNELS 3 Zrotation Yrotation Xrotation
							JOINT rightforearm
							{
								OFFSET -10.37987 -0.01039 -0.55511
								CHANNELS 3 Zrotation Yrotation Xrotation
								JOINT righthand
								{
									OFFSET -8.67398 0.07538 0.40058
									CHANNELS 3 Zrotation Yrotation Xrotation
									End Site
									{
										OFFSET -5.24810 -0.21916 0.59204
									}
								}
							}
						}
					}
				}
			}
		}
	}
	JOINT leftuplegdummy
	{
		OFFSET 0 0 0
		CHANNELS 3 Zrotation Yrotation Xrotation
		JOINT leftupleg
		{
			OFFSET 3.52197 -3.41223 0.04002
			CHANNELS 3 Zrotation Yrotation Xrotation
			JOINT leftleg
			{
				OFFSET -0.00012 -17.42399 1.60337
				CHANNELS 3 Zrotation Yrotation Xrotation
				JOINT leftfoot
				{
					OFFSET -0.09972 -16.50070 -1.63802
					CHANNELS 3 Zrotation Yrotation Xrotation
					JOINT lefttoes
					{
						OFFSET -0.01575 -1.73823 3.34611
						CHANNELS 3 Zrotation Yrotation Xrotation
						End Site
						{
							OFFSET 0.03150 -0.01868 3.85031
						}
					}
				}
			}
		}
	}
}
MOTION
Frames: 14
Frame Time: 0.033333
1.1881 39.7011 24.9724 -3.3023 -52.3230 9.7842 0.0000 -0.0000 0.0000 -6.6210 0.8690 -8.2865 -7.7291 -11.6202 27.5501 11.4784 -0.2804 -8.8407 0.0000 0.0000 0.0000 0.0000 -0.0000 0.0000 -2.0119 1.6177 -1.3475 2.7124 1.0332 5.3258 -0.0000 -0.0000 -0.0000 -14.6488 30.3289 -30.7180 -0.0000 -0.0000 -0.0000 -34.9617 -12.2375 6.4511 -23.7822 2.3059 10.3542 178.6653 -66.8234 -158.2359 2.3649 -3.8165 -0.1545 -0.0000 -0.0000 -0.0000 33.4095 6.6898 4.0170 30.5976 -11.7127 21.1768 -179.0395 72.3849 -163.5530 -6.9862 7.6111 -0.7191 0.0000 -0.0000 0.0000 2.0431 1.4513 -14.0021 4.9034 8.3126 23.1962 -5.9100 0.1435 -9.6864 0.0000 0.0000 0.0000
1.0683 38.9754 24.4661 -2.0510 -51.8765 8.6318 0.0000 -0.0000 0.0000 -7.6533 -2.3447 -7.1520 -3.9578 -5.9043 26.7157 13.3774 0.4589 -15.9798 0.0000 0.0000 0.0000 0.0000 -0.0000 0.0000 -3.9489 1.5807 -2.9426 3.6921 0.7556 8.3384 -0.0000 -0.0000 -0.0000 -15.3590 28.6471 -32.7830 -0.0000 -0.0000 -0.0000 -36.8118 -12.7447 6.9668 -18.9175 -2.5285 7.2237 178.0979 -70.6044 -155.0017 4.0567 -3.4980 -0.2799 -0.0000 -0.0000 -0.0000 35.0840 6.8157 4.2414 32.4231 -9.0624 16.9170 -178.2681 76.1298 -159.6749 -5.8530 8.0678 -0.6114 0.0000 -0.0000 0.0000 1.7596 -0.3149 -16.0770 6.8118 9.9629 27.5019 -5.5873 -0.0212 -13.3561 0.0000 0.0000 0.0000
1.0088 39.1969 24.0716 -4.0103 -53.2533 9.9092 0.0000 -0.0000 0.0000 -6.2174 -3.7949 -6.5984 -2.5404 -3.9908 24.6434 10.7803 0.2793 -14.7891 0.0000 0.0000 0.0000 0.0000 -0.0000 0.0000 -1.0413 2.2389 -3.4514 1.9708 1.7062 9.7255 -0.0000 -0.0000 -0.0000 -16.3997 27.5086 -34.8231 -0.0000 -0.0000 -0.0000 -37.8147 -13.0391 7.2643 -21.4722 -3.2359 3.6373 176.8987 -72.8884 -148.1966 3.0725 -3.5488 -0.2056 -0.0000 -0.0000 -0.0000 35.9002 6.9408 4.3797 35.5492 -8.5270 13.9284 -177.6413 78.7719 -158.6552 -5.6456 8.0574 -0.5870 0.0000 -0.0000 0.0000 3.5203 -0.9264 -15.6588 7.8908 11.8844 27.1030 -6.5324 0.0448 -11.7378 0.0000 0.0000 0.0000
0.8708 40.1447 23.7067 -6.0135 -55.6794 11.9154 0.0000 -0.0000 0.0000 -4.9691 -3.2480 -6.9344 -1.3491 -2.2044 21.6073 10.8585 -0.3364 -8.1221 0.0000 0.0000 0.0000 0.0000 -0.0000 0.0000 0.7280 2.8328 -2.6870 1.5909 2.4010 7.7499 -0.0000 -0.0000 -0.0000 -17.0779 28.5632 -34.8904 -0.0000 -0.0000 -0.0000 -37.5887 -12.9428 7.1835 -30.3700 1.5704 0.9603 177.1254 -71.1136 -147.8995 2.6962 -3.4293 -0.1749 -0.0000 -0.0000 -0.0000 35.5307 6.9097 4.3273 38.2536 -10.2968 14.3390 -178.2455 78.1914 -161.3454 -6.1293 7.1563 -0.6027 0.0000 -0.0000 0.0000 5.3582 0.6374 -13.6572 6.7975 12.5098 21.9330 -8.5369 0.4860 -5.2525 0.0000 0.0000 0.0000
0.5484 41.1288 23.1966 -6.0734 -57.0335 13.4286 0.0000 -0.0000 0.0000 -4.6882 -2.2949 -8.0014 -0.2892 -0.1736 18.5398 12.6291 -1.0503 -1.9151 0.0000 0.0000 0.0000 0.0000 -0.0000 0.0000 -0.7310 2.5330 -4.7153 2.9158 1.8797 7.1686 -0.0000 -0.0000 -0.0000 -16.5444 30.7011 -33.6758 -0.0000 -0.0000 -0.0000 -37.3831 -12.8831 7.1225 -37.8570 7.4824 -0.5258 178.3870 -68.1562 -156.4881 4.6826 -2.6474 -0.3008 -0.0000 -0.0000 -0.0000 35.2789 6.9241 4.3066 39.0941 -12.0765 16.2344 -178.5678 76.2033 -162.0261 -4.5613 7.6143 -0.4446 0.0000 -0.0000 0.0000 6.2974 5.7383 -12.7815 3.5938 8.5452 16.1372 -10.5779 1.2519 2.2759 0.0000 0.0000 0.0000
0.2267 41.7302 22.6085 -5.2520 -57.0829 13.5691 0.0000 -0.0000 0.0000 -4.4749 -2.3021 -8.2239 -0.1437 0.3459 16.2668 13.6001 -1.5235 1.4421 0.0000 0.0000 0.0000 0.0000 -0.0000 0.0000 -1.0209 1.8696 -5.8264 2.1477 1.4237 6.3560 -0.0000 -0.0000 -0.0000 -15.3097 31.8374 -31.9609 -0.0000 -0.0000 -0.0000 -37.6052 -12.9781 7.2017 -40.3841 11.4696 -0.6210 179.1890 -65.8488 -163.0309 5.5866 -2.4075 -0.3538 -0.0000 -0.0000 -0.0000 35.6506 6.9828 4.3705 38.6334 -14.0205 17.2703 -178.5652 73.9096 -160.9144 -2.3815 8.7143 -0.2158 0.0000 -0.0000 0.0000 7.5240 8.9835 -12.4643 0.7242 3.8835 12.7275 -12.4730 2.0802 7.9642 0.0000 0.0000 0.0000
0.0552 41.8176 22.0213 -4.6838 -56.8076 12.5174 0.0000 -0.0000 0.0000 -4.3170 -1.6174 -7.3434 0.1301 1.4372 15.6046 13.4910 -1.5109 1.4895 0.0000 0.0000 0.0000 0.0000 -0.0000 0.0000 0.8496 1.6828 -5.2289 -0.1285 1.6598 6.0997 -0.0000 -0.0000 -0.0000 -14.9007 31.5454 -31.0827 -0.0000 -0.0000 -0.0000 -37.0714 -12.8415 7.0517 -40.0328 11.4164 0.7531 179.0126 -65.0361 -161.1020 3.8040 -2.8282 -0.2442 -0.0000 -0.0000 -0.0000 35.2702 6.9443 4.3139 38.1282 -14.9523 17.4502 -178.7711 72.0027 -161.5220 -2.5316 8.4513 -0.2297 0.0000 -0.0000 0.0000 8.8100 7.8595 -11.8823 0.2868 1.4439 12.0549 -13.5278 2.4750 9.8189 0.0000 0.0000 0.0000
-0.0685 41.2887 21.3678 -3.4981 -56.5807 10.3092 0.0000 -0.0000 0.0000 -4.5469 0.1876 -5.6767 0.7570 3.3902 15.9802 10.6698 -0.7688 -3.2523 0.0000 0.0000 0.0000 0.0000 -0.0000 0.0000 1.3945 1.8439 -3.4893 -0.8307 2.0061 5.4803 -0.0000 -0.0000 -0.0000 -14.5540 30.8619 -30.2652 -0.0000 -0.0000 -0.0000 -35.8328 -12.4520 6.6804 -38.8578 8.6153 3.1216 178.6113 -66.1166 -157.5324 2.4354 -3.2180 -0.1524 -0.0000 -0.0000 -0.0000 34.3265 6.8428 4.1729 37.0163 -15.3391 17.3947 -179.0632 70.5438 -163.2889 -3.5805 7.6279 -0.3367 0.0000 -0.0000 0.0000 9.4240 4.7473 -11.8121 1.0967 1.7202 14.4705 -13.6782 2.0759 6.1599 0.0000 0.0000 0.0000
-0.2017 40.2813 20.6422 -2.4327 -56.7983 8.0434 0.0000 -0.0000 0.0000 -3.9209 2.6162 -3.9477 0.1600 1.6508 16.8376 5.7807 -0.0443 -11.3165 0.0000 0.0000 0.0000 0.0000 -0.0000 0.0000 0.9934 2.3132 -1.7514 -0.4218 2.4661 5.2561 -0.0000 -0.0000 -0.0000 -14.4956 30.3679 -29.7681 -0.0000 -0.0000 -0.0000 -35.9785 -12.4187 6.6904 -35.4623 4.4775 4.9427 178.4758 -67.8543 -157.1450 2.9669 -3.3357 -0.1940 -0.0000 -0.0000 -0.0000 33.5005 6.7010 4.0305 35.1384 -14.0169 16.8839 -179.1421 71.5139 -164.1153 -5.2354 7.4000 -0.5147 0.0000 -0.0000 0.0000 10.0283 3.1435 -12.4561 1.8036 3.1800 19.2334 -13.8770 1.2783 -0.8924 0.0000 0.0000 0.0000
-0.2569 39.2635 19.9238 -2.9914 -57.2997 7.1962 0.0000 -0.0000 0.0000 -1.6626 6.1401 -3.9204 -2.1669 -3.9943 19.8878 2.3100 0.0770 -18.3025 0.0000 0.0000 0.0000 0.0000 -0.0000 0.0000 2.4238 2.7162 -0.3430 -1.1242 3.0698 6.3416 -0.0000 -0.0000 -0.0000 -15.3797 30.0440 -30.8662 -0.0000 -0.0000 -0.0000 -37.8406 -12.9041 7.2107 -30.2720 -0.0025 4.9349 178.2424 -69.9381 -156.1963 4.6425 -3.2206 -0.3161 -0.0000 -0.0000 -0.0000 33.6667 6.6544 4.0291 33.0232 -9.9142 15.7983 -178.9907 76.3554 -163.6865 -5.5397 7.5902 -0.5558 0.0000 -0.0000 0.0000 11.3321 2.4824 -13.4792 2.8733 4.3662 24.3385 -14.0738 0.5786 -6.9923 0.0000 0.0000 0.0000
-0.2597 38.6663 19.3367 -3.5279 -56.7223 6.4997 0.0000 -0.0000 0.0000 0.3313 7.6203 -5.1866 -4.4369 -7.2232 24.6989 0.8643 -0.0015 -21.6856 0.0000 0.0000 0.0000 0.0000 -0.0000 0.0000 3.6783 2.5223 0.6266 -1.6315 3.0410 8.2847 -0.0000 -0.0000 -0.0000 -16.5679 29.4154 -33.6816 -0.0000 -0.0000 -0.0000 -39.4238 -13.3906 7.7029 -27.9953 -3.1813 4.1802 177.5832 -73.1581 -153.2225 5.3798 -3.2061 -0.3702 -0.0000 -0.0000 -0.0000 34.4006 6.7717 4.1521 32.3280 -6.1986 14.0355 -178.1085 81.5761 -162.5683 -6.1028 7.1888 -0.6017 0.0000 -0.0000 0.0000 12.5559 -0.8440 -14.2731 4.5699 6.4593 27.5106 -13.9127 0.2249 -9.9948 0.0000 0.0000 0.0000
-0.3216 38.6592 18.9509 -2.5865 -53.6453 4.9932 0.0000 -0.0000 0.0000 0.7248 4.8999 -5.4085 -4.7741 -7.1880 26.8054 0.6688 -0.0198 -21.6765 0.0000 0.0000 0.0000 0.0000 -0.0000 0.0000 2.4239 1.5382 1.5387 -0.0218 1.6644 8.7486 -0.0000 -0.0000 -0.0000 -16.8328 28.6435 -36.1262 -0.0000 -0.0000 -0.0000 -39.6844 -13.5153 7.8064 -30.6658 -3.3373 4.4726 176.9573 -75.3945 -151.2693 4.3441 -3.5154 -0.3025 -0.0000 -0.0000 -0.0000 35.1382 6.9286 4.2934 33.8540 -6.9260 11.9699 -177.9789 82.4371 -162.9822 -7.7460 6.2361 -0.7244 0.0000 -0.0000 0.0000 12.7108 -5.4398 -14.6349 5.8276 8.5348 27.1963 -12.8927 0.3418 -8.7783 0.0000 0.0000 0.0000
-0.5148 39.1469 18.7482 -1.3682 -49.9980 4.4569 0.0000 -0.0000 0.0000 0.5370 1.4652 -4.4234 -4.2160 -6.9960 24.2203 1.2819 0.0153 -19.0656 0.0000 0.0000 0.0000 0.0000 -0.0000 0.0000 -0.1636 0.9063 0.8565 2.9163 0.3035 8.4312 -0.0000 -0.0000 -0.0000 -16.2288 27.8999 -36.1229 -0.0000 -0.0000 -0.0000 -39.6099 -13.5055 7.7886 -34.7875 -0.9868 5.9461 177.0537 -74.7685 -151.1006 2.8452 -3.8650 -0.1932 -0.0000 -0.0000 -0.0000 35.0300 6.8688 4.2574 37.1799 -10.8929 10.6520 -178.4562 80.1838 -163.5084 -6.9886 6.7525 -0.6751 0.0000 -0.0000 0.0000 12.1650 -6.1359 -14.5005 5.0243 8.5193 23.2075 -10.8030 0.6932 -4.2729 0.0000 0.0000 0.0000
-0.7423 39.8067 18.7127 -0.1616 -47.6557 5.1301 0.0000 -0.0000 0.0000 0.1093 0.0823 -3.6620 -3.7705 -7.4853 19.5322 1.9129 0.0077 -15.1605 0.0000 0.0000 0.0000 0.0000 -0.0000 0.0000 -1.6147 0.9330 -0.9103 3.8158 0.1703 7.1960 -0.0000 -0.0000 -0.0000 -14.7102 27.2486 -33.6967 -0.0000 -0.0000 -0.0000 -39.2438 -13.3685 7.6610 -37.5935 2.8233 7.8650 177.3478 -72.5076 -151.0234 1.3421 -4.3834 -0.0746 -0.0000 -0.0000 -0.0000 35.2084 6.8164 4.2547 39.8306 -15.2915 10.3638 -178.5451 78.5604 -163.2230 -6.4914 7.2489 -0.6463 0.0000 -0.0000 0.0000 10.7366 -1.7624 -14.2127 2.6756 5.2342 17.7368 -10.1502 0.9455 -0.7972 0.0000 0.0000 0.0000
